# xmcd
#
# Track frame offsets: 
#        150
#        10523
#        25408
#        37120
#        52422
#        68898
#        87348
#        103920
#        118715
#        136567
#        155569
#        168353
#        182845
#        198381
#        216605
#        229260
#        245737
#        268522
#        287734
#        303494
#        320321
#
# Disc length: 4483 seconds
#
# Revision: 0
# Processed by: cddbd v1.5.2PL0 Copyright (c) Steve Scherf et al.
# Submitted via: ExactAudioCopy v1.1
#
DISCID=3b118115
DTITLE=Various Artist - MNM - Het Beste Van De Teens 2010-2017 - CD 3
DYEAR=2018
DGENRE=Top 40
TTITLE0=Lost Frequencies - Are You With Me
TTITLE1=LMFAO - Sexy And I Know It
TTITLE2=Yolanda Be Cool and DCup - We No Speak Americano
TTITLE3=Gusttavo Lima - Balada (Tchê Tcherere Tchê Tchê)
TTITLE4=Lady Gaga - Born This Way
TTITLE5=Will.I.Am Feat. Eva Simons - This Is Love
TTITLE6=Usher Feat. Pitbull - DJ Got Us Fallin' In Love
TTITLE7=DJ F.R.A.N.K - Discotex
TTITLE8=John Newman - Love Me Again
TTITLE9=Goose - Synrise
TTITLE10=2 Fabiola - She's After My Piano
TTITLE11=Alexandra Stan - Mr. Saxobeat
TTITLE12=Bastille - Good Grief
TTITLE13=Gossip - Heavy Cross
TTITLE14=Hooverphonic - The Night Before
TTITLE15=Robin Schulz Feat. Francesco Yates - Sugar
TTITLE16=Ahzee - Born Again
TTITLE17=OneRepublic - Counting Stars
TTITLE18=Alan Walker - Faded
TTITLE19=Sam Smith - Writing's On The Wall
TTITLE20=Israel Kamakawiwo'ole - Over The Rainbow
EXTD=
EXTT0=
EXTT1=
EXTT2=
EXTT3=
EXTT4=
EXTT5=
EXTT6=
EXTT7=
EXTT8=
EXTT9=
EXTT10=
EXTT11=
EXTT12=
EXTT13=
EXTT14=
EXTT15=
EXTT16=
EXTT17=
EXTT18=
EXTT19=
EXTT20=
PLAYORDER=
